<svg id="Capa_1" enable-background="new 0 0 512 512" height="512" viewBox="0 0 512 512" width="512" xmlns="http://www.w3.org/2000/svg"><g><path d="m310.516 401.293h-109.032l-39.577 99.59c-2.118 5.331 1.809 11.117 7.545 11.117h173.096c5.736 0 9.663-5.787 7.545-11.117z" fill="#9e5528"/><path d="m350.093 500.883-39.577-99.59h-40.275l39.577 99.59c2.118 5.331-1.809 11.117-7.545 11.117h40.275c5.736 0 9.663-5.787 7.545-11.117z" fill="#904d24"/><g><path d="m122.17 196.208c0-108.363 59.917-196.208 133.83-196.208s133.83 87.845 133.83 196.208c0 89.842-67.29 155.11-138.574 151.448-71.711-2.834-129.086-69.532-129.086-151.448z" fill="#ecbba3"/></g><path d="m256 0c-6.845 0-13.569.757-20.137 2.211 64.358 14.24 113.693 95.67 113.693 193.997 0 75.96-49.339 138.825-113.693 149.826 81.486 13.929 153.968-57.521 153.968-149.826-.001-108.363-59.919-196.208-133.831-196.208z" fill="#e8ad8c"/><path d="m409.206 246.288c0-22.402-2.239-44.037-6.404-64.453-.945-4.632-5.052-7.939-9.779-7.939h-274.046c-4.727 0-8.834 3.307-9.779 7.939-4.165 20.416-6.404 42.051-6.404 64.453 0 93.775 65.682 170.13 147.775 173.375 82.259 4.225 158.637-71.272 158.637-173.375z" fill="#c86d36"/><path d="m402.802 181.835c-.945-4.632-5.052-7.939-9.779-7.939h-40.275c4.727 0 8.834 3.307 9.779 7.939 4.165 20.416 6.404 42.051 6.404 64.453 0 88.102-57.977 160.821-133.068 171.99 91.458 13.602 173.343-66.671 173.343-171.99 0-22.402-2.239-44.037-6.404-64.453z" fill="#ac5e2e"/><path d="m138.219 357.232h235.563c15.453-21.011 26.599-46.222 31.915-73.903h-299.394c5.317 27.681 16.463 52.892 31.916 73.903z" fill="#9e5528"/><path d="m365.424 283.329c-5.317 27.683-16.468 52.892-31.923 73.903h40.28c14.375-19.167 25.967-44.162 31.915-73.903z" fill="#904d24"/></g></svg>